HIERARCHY
ROOT Hips
{
	OFFSET 0.00000 0.00000 0.00000
	CHANNELS 6 Xposition Yposition Zposition Zrotation Yrotation Xrotation 
	JOINT LHipJoint
	{
		OFFSET 0 0 0
		CHANNELS 3 Zrotation Yrotation Xrotation
		JOINT LeftUpLeg
		{
			OFFSET 1.28366 -1.58472 0.87544
			CHANNELS 3 Zrotation Yrotation Xrotation
			JOINT LeftLeg
			{
				OFFSET 2.18587 -6.00562 0.00000
				CHANNELS 3 Zrotation Yrotation Xrotation
				JOINT LeftFoot
				{
					OFFSET 2.39085 -6.56880 0.00000
					CHANNELS 3 Zrotation Yrotation Xrotation
					JOINT LeftToeBase
					{
						OFFSET 0.12003 -0.32979 2.03101
						CHANNELS 3 Zrotation Yrotation Xrotation
						End Site
						{
							OFFSET 0.00000 -0.00000 1.04074
						}
					}
				}
			}
		}
	}
	JOINT RHipJoint
	{
		OFFSET 0 0 0
		CHANNELS 3 Zrotation Yrotation Xrotation
		JOINT RightUpLeg
		{
			OFFSET -1.21795 -1.58472 0.87544
			CHANNELS 3 Zrotation Yrotation Xrotation
			JOINT RightLeg
			{
				OFFSET -2.22714 -6.11902 0.00000
				CHANNELS 3 Zrotation Yrotation Xrotation
				JOINT RightFoot
				{
					OFFSET -2.40306 -6.60235 0.00000
					CHANNELS 3 Zrotation Yrotation Xrotation
					JOINT RightToeBase
					{
						OFFSET -0.15519 -0.42640 1.91430
						CHANNELS 3 Zrotation Yrotation Xrotation
						End Site
						{
							OFFSET -0.00000 -0.00000 0.99082
						}
					}
				}
			}
		}
	}
	JOINT LowerBack
	{
		OFFSET 0 0 0
		CHANNELS 3 Zrotation Yrotation Xrotation
		JOINT Spine
		{
			OFFSET 0.01180 1.76430 -0.06387
			CHANNELS 3 Zrotation Yrotation Xrotation
			JOINT Spine1
			{
				OFFSET -0.00388 1.74651 0.09536
				CHANNELS 3 Zrotation Yrotation Xrotation
				JOINT Neck
				{
					OFFSET 0 0 0
					CHANNELS 3 Zrotation Yrotation Xrotation
					JOINT Neck1
					{
						OFFSET 0.04111 1.46174 0.14397
						CHANNELS 3 Zrotation Yrotation Xrotation
						JOINT Head
						{
							OFFSET 0.00502 1.44580 -0.31711
							CHANNELS 3 Zrotation Yrotation Xrotation
							End Site
							{
								OFFSET -0.00395 1.49251 -0.12327
							}
						}
					}
				}
				JOINT LeftShoulder
				{
					OFFSET 0 0 0
					CHANNELS 3 Zrotation Yrotation Xrotation
					JOINT LeftArm
					{
						OFFSET 2.70917 1.34870 -0.15417
						CHANNELS 3 Zrotation Yrotation Xrotation
						JOINT LeftForeArm
						{
							OFFSET 4.46610 -0.00000 -0.00000
							CHANNELS 3 Zrotation Yrotation Xrotation
							JOINT LeftHand
							{
								OFFSET 3.41414 -0.00000 0.00000
								CHANNELS 3 Zrotation Yrotation Xrotation
								JOINT LeftFingerBase
								{
									OFFSET 0 0 0
									CHANNELS 3 Zrotation Yrotation Xrotation
									JOINT LeftHandIndex1
									{
										OFFSET 0.32830 -0.00000 0.00000
										CHANNELS 3 Zrotation Yrotation Xrotation
										End Site
										{
											OFFSET 0.26468 -0.00000 0.00000
										}
									}
								}
								JOINT LThumb
								{
									OFFSET 0 0 0
									CHANNELS 3 Zrotation Yrotation Xrotation
									End Site
									{
										OFFSET 0.26872 -0.00000 0.26872
									}
								}
							}
						}
					}
				}
				JOINT RightShoulder
				{
					OFFSET 0 0 0
					CHANNELS 3 Zrotation Yrotation Xrotation
					JOINT RightArm
					{
						OFFSET -3.06316 1.13725 -0.10883
						CHANNELS 3 Zrotation Yrotation Xrotation
						JOINT RightForeArm
						{
							OFFSET -4.40431 -0.00000 0.00000
							CHANNELS 3 Zrotation Yrotation Xrotation
							JOINT RightHand
							{
								OFFSET -3.04688 -0.00000 0.00000
								CHANNELS 3 Zrotation Yrotation Xrotation
								JOINT RightFingerBase
								{
									OFFSET 0 0 0
									CHANNELS 3 Zrotation Yrotation Xrotation
									JOINT RightHandIndex1
									{
										OFFSET -0.50049 -0.00000 0.00000
										CHANNELS 3 Zrotation Yrotation Xrotation
										End Site
										{
											OFFSET -0.40351 -0.00000 0.00000
										}
									}
								}
								JOINT RThumb
								{
									OFFSET 0 0 0
									CHANNELS 3 Zrotation Yrotation Xrotation
									End Site
									{
										OFFSET -0.40967 -0.00000 0.40967
									}
								}
							}
						}
					}
				}
			}
		}
	}
}
MOTION
Frames: 7
Frame Time: .0083333
-27.0821 13.3582 21.8399 0 0 0 0 0 0 -21 0 0 0 0 0 0 0 0 0 0 0 0 0 0 21 0 0 0 0 0 0 0 0 0 0 0 0 0 0 0 0 0 0 0 0 0 0 -16 0 0 21 0 0 11 0 0 0 -8 0 0 0 0 0 0 0 0 0 0 0 0 0 0 0 0 0 0 0 0 8 0 0 0 0 0 0 0 0 0 0 0 0 0 0 0 0 0
-27.0821 13.3582 21.8399 -177.3270 -0.3269 -174.9660 0.0000 0.0000 0.0000 -18.1685 20.9982 -49.1134 14.1349 19.1545 72.6162 3.2324 -5.6985 -32.8640 0.4151 4.1358 11.4591 0.0000 0.0000 0.0000 21.7143 -29.7213 -53.1026 -14.4788 -19.2529 73.6615 -2.9866 3.0887 -31.9836 -0.3191 -3.6313 10.0416 2.4465 2.7884 6.5522 0.2955 3.7918 -6.8226 -1.6219 1.5255 -10.8418 -0.2116 -1.0407 -19.7131 2.6808 -2.6021 22.8841 0.5755 -1.0671 10.6674 -0.0000 -0.0000 0.0000 5.2043 4.9064 39.4462 18.5336 -28.8351 -4.8038 -0.0000 0.0000 -14.7447 1.7164 -0.8920 -0.0267 -7.1250 0.0000 -0.0000 -19.1203 28.8157 7.9471 -0.0000 -0.0000 0.0000 -1.0465 -9.4321 40.3377 -23.1807 34.2858 -7.2398 0.0000 -0.0000 -17.6640 -2.2801 13.1035 -0.5172 7.1250 -0.0000 -0.0000 17.1394 -17.1961 11.8516
-27.0825 13.3505 21.8371 -177.3260 -0.2797 -174.9730 0.0000 0.0000 0.0000 -18.1411 21.0509 -49.1570 14.1754 19.1664 72.7394 3.2363 -5.8670 -32.8612 0.4432 4.2716 11.8421 0.0000 0.0000 0.0000 21.6845 -29.7344 -53.1309 -14.5139 -19.2626 73.7680 -2.9889 3.1945 -31.9739 -0.3323 -3.7046 10.2470 2.4680 2.7670 6.5802 0.3050 3.7676 -6.8177 -1.6214 1.5125 -10.8535 -0.6185 -1.4834 -19.3598 2.7999 -3.1098 22.5587 0.6134 -1.3258 10.4982 0.0000 0.0000 0.0000 5.1774 4.9718 39.5114 18.5653 -28.8750 -4.8191 -0.0000 0.0000 -14.7245 1.7563 -0.8192 -0.0251 -7.1250 0.0000 -0.0000 -19.1037 28.8855 7.9057 0.0000 0.0000 0.0000 -1.0762 -9.4281 40.2918 -23.2374 34.3474 -7.2718 0.0000 -0.0000 -17.7081 -2.4897 13.0581 -0.5629 7.1250 -0.0000 -0.0000 17.0035 -17.2331 11.7339
-27.0839 13.3458 21.8350 -177.3140 -0.2606 -174.9670 0.0000 0.0000 0.0000 -18.1308 21.0816 -49.2076 14.2126 19.1772 72.8526 3.2447 -5.7528 -32.9219 0.4093 4.1070 11.3779 0.0000 0.0000 0.0000 21.6581 -29.7009 -53.1531 -14.5481 -19.2719 73.8717 -2.9961 3.3046 -31.9907 -0.3456 -3.7777 10.4520 2.5125 2.7490 6.5931 0.3205 3.7504 -6.8138 -1.6275 1.5013 -10.8560 -1.2742 -1.9696 -19.0936 3.1018 -3.6621 22.3434 0.7516 -1.6042 10.3991 -0.0000 -0.0000 0.0000 5.1543 4.9941 39.6519 18.6112 -28.9327 -4.8413 -0.0000 0.0000 -14.7166 1.7199 -0.8349 -0.0251 -7.1250 0.0000 -0.0000 -19.1279 28.8697 7.9245 -0.0000 -0.0000 0.0000 -1.0662 -9.4689 40.1285 -23.2254 34.3344 -7.2650 0.0000 -0.0000 -17.5394 -2.7817 13.2187 -0.6366 7.1250 -0.0000 -0.0000 16.7952 -17.0702 11.6395
-27.0836 13.3362 21.8320 -177.2810 -0.2300 -174.9710 0.0000 0.0000 0.0000 -18.0797 21.1878 -49.2887 14.2584 19.1905 72.9921 3.2487 -5.9024 -32.9226 0.4149 4.1348 11.4563 0.0000 0.0000 0.0000 21.6574 -29.6979 -53.1887 -14.5893 -19.2831 73.9963 -3.0004 3.3559 -32.0038 -0.3367 -3.7289 10.3153 2.5627 2.6959 6.6053 0.3194 3.6832 -6.8295 -1.6473 1.4634 -10.8808 -1.6739 -2.4029 -18.7042 3.2604 -4.1859 22.0805 0.8023 -1.8688 10.2564 -0.0000 -0.0000 0.0000 5.2109 5.1461 39.8518 18.6687 -29.0049 -4.8691 -0.0000 0.0000 -14.6831 1.6508 -0.8416 -0.0243 -7.1250 0.0000 -0.0000 -19.1782 28.8616 7.9515 -0.0000 -0.0000 0.0000 -1.1320 -9.3316 40.2115 -23.2417 34.3521 -7.2742 0.0000 -0.0000 -17.5828 -3.0095 13.1637 -0.6860 7.1250 -0.0000 -0.0000 16.6476 -17.1155 11.5103
-27.0850 13.3296 21.8296 -177.2860 -0.2115 -174.9840 0.0000 0.0000 0.0000 -18.0729 21.2448 -49.3371 14.2979 19.2019 73.1122 3.2497 -5.9293 -32.9247 0.4064 4.0925 11.3370 0.0000 0.0000 0.0000 21.5620 -29.6774 -53.2124 -14.6303 -19.2942 74.1205 -3.0046 3.7309 -31.9519 -0.4117 -4.1188 11.4112 2.5619 2.5999 6.6140 0.3302 3.5540 -6.8321 -1.6159 1.4009 -10.8951 -1.9959 -2.8140 -18.3916 3.3142 -4.6819 21.8981 0.8074 -2.1257 10.1552 -0.0000 -0.0000 0.0000 5.1624 5.3943 39.8820 18.6911 -29.0330 -4.8800 -0.0000 0.0000 -14.6375 1.6140 -0.9029 -0.0254 -7.1250 0.0000 -0.0000 -19.1944 28.8028 7.9876 -0.0000 -0.0000 0.0000 -0.8592 -9.2949 39.3597 -23.0630 34.1576 -7.1736 0.0000 -0.0000 -16.8104 -2.7002 13.4857 -0.6301 7.1250 -0.0000 -0.0000 16.8281 -16.8171 11.7622
-27.0855 13.3225 21.8269 -177.2820 -0.1877 -174.9900 0.0000 0.0000 0.0000 -18.0546 21.3020 -49.3892 14.3388 19.2136 73.2364 3.2549 -5.9843 -32.9449 0.4043 4.0823 11.3084 0.0000 0.0000 0.0000 21.5090 -29.6544 -53.2346 -14.6705 -19.3049 74.2422 -3.0104 3.9011 -31.9514 -0.4417 -4.2646 11.8223 2.5754 2.5340 6.6232 0.3382 3.4666 -6.8380 -1.6019 1.3573 -10.9108 -2.3967 -3.2409 -18.0611 3.4292 -5.1929 21.6953 0.8465 -2.3892 10.0503 -0.0000 0.0000 0.0000 5.1378 5.5602 39.9545 18.7254 -29.0760 -4.8967 -0.0000 0.0000 -14.6536 1.5552 -0.9256 -0.0251 -7.1250 0.0000 -0.0000 -19.2340 28.7799 8.0171 -0.0000 0.0000 0.0000 -0.8090 -9.1896 39.1447 -23.0126 34.1025 -7.1453 0.0000 -0.0000 -16.6746 -2.6537 13.5309 -0.6213 7.1250 -0.0000 -0.0000 16.8554 -16.7754 11.7992
